/* XPM */
static char * bottom_right_active_xpm[] = {
"12 6 10 1",
" 	c None",
".	c #FFFFFF",
"+	c #FEFEFE",
"@	c #FD7A81",
"#	c #FD7980",
"$	c #FDFCFC",
"%	c #FEFAFA",
"&	c #FDFBFB",
"*	c #FEF9F9",
"=	c #FD7B82",
".....+@#### ",
"....+###### ",
"....$#####  ",
"...$#####   ",
"+%&####     ",
"*=###       "};
