/* XPM */
static char * close_pressed_xpm[] = {
"20 6 7 1",
" 	c None",
".	c #FE2B35",
"+	c #FE2A34",
"@	c #FE2A33",
"#	c #FE2933",
"$	c #FE2C36",
"%	c #FE2B34",
".+++++++++++++@@++..",
"++++++@@####@@@#@@+.",
"++++++@+@@####@##@++",
"++++++++@@###@@@#@++",
".+++++++@@##@#@+@++.",
"$..++++++++++++++%.$"};
