/* XPM */
static char * hide_active_xpm[] = {
"20 6 7 1",
" 	c None",
".	c #8FFE98",
"+	c #90FE98",
"@	c #92FD96",
"#	c #90FE97",
"$	c #91FE97",
"%	c #92FD97",
"..................+@",
"..................+#",
"...................+",
"...................#",
"...................$",
"..................+%"};
