/* XPM */
static char * maximize_pressed_xpm[] = {
"20 6 4 1",
" 	c None",
".	c #FEC11B",
"+	c #FEC11C",
"@	c #FEC11D",
"....................",
"....................",
".+..................",
"..................++",
"+++++++++.........++",
"+++++++++++++....++@"};
