/* XPM */
static char * maximize_active_xpm[] = {
"20 6 3 1",
" 	c None",
".	c #FED971",
"+	c #FEDA71",
"...................+",
"....................",
"....................",
"....................",
"...................+",
"+..................+"};
