/* XPM */
static char * right_active_xpm[] = {
"12 6 3 1",
" 	c None",
".	c #FFFFFF",
"+	c #FD7B82",
"......++++++",
"......++++++",
"......++++++",
"......++++++",
"......++++++",
"......++++++"};
