/* XPM */
static char * shade_prelight_xpm[] = {
"20 6 3 1",
" 	c None",
".	c #D9D9D9",
"+	c #D9D9D8",
".................+++",
"....................",
"....................",
"....................",
"....................",
"...................+"};
