/* XPM */
static char * top_right_active_xpm[] = {
"12 12 3 1",
" 	c None",
".	c #FFFFFF",
"+	c #FD7980",
"......++++++",
"......++++++",
"......++++++",
"......++++++",
"......++++++",
"......++++++",
"......++++++",
"......++++++",
"......++++++",
"......++++++",
"......++++++",
"......++++++"};
